<svg data-name="Capa 2" xmlns="http://www.w3.org/2000/svg" viewBox="0 0 48 32"><defs><clipPath id="a"><path style="fill:none;stroke-width:0" d="M0 0h48v32H0z"/></clipPath></defs><g data-name="Capa 1"><path style="fill:#fff;stroke-width:0" d="M.5.5h47v31H.5z"/><path style="fill:#eb5d1c;stroke-width:0" d="M18.72 7.12h10.64v17.77H18.72z"/><g style="clip-path:url(#a)"><path d="M19.79 16c0-3.5 1.57-6.77 4.21-8.88C19.27 3.33 12.37 4.1 8.58 8.83c-.05.06-.1.13-.15.19-3.76 4.93-2.94 11.95 1.86 15.87 4 3.2 9.64 3.2 13.71 0A11.58 11.58 0 0 1 19.8 16h-.01Z" style="fill:#e4181b;stroke-width:0"/><path d="M41.93 16c0 6.27-4.92 11.3-11.07 11.3-2.5 0-4.93-.88-6.86-2.41 4.91-4.01 5.63-11.25 1.62-16.16-.48-.59-1.02-1.13-1.62-1.61 4.73-3.79 11.63-3.03 15.42 1.7.05.07.11.13.16.2 1.55 1.99 2.38 4.45 2.35 6.98m-.28 7v-.44h-.14l-.15.3-.14-.3h-.14V23h.07v-.37l.14.3h.07l.15-.3V23h.14Zm-.72 0v-.37h.15v-.07h-.36v.07h.14l.07.37Z" style="stroke-width:0;fill:#f59c21"/><path style="stroke:#d6d6d8;fill:none" d="M.5.5h47v31H.5z"/></g></g></svg>