<svg data-name="Capa 2" xmlns="http://www.w3.org/2000/svg" viewBox="0 0 48 32"><defs><clipPath id="a"><path style="stroke-width:0;fill:none" d="M0 0h48v32H0z"/></clipPath></defs><g data-name="Capa 1"><path style="fill:#3569b2;stroke-width:0" d="M.5.5h47v31H.5z"/><path d="m40.23 20.72 2.23 2.31v-4.59l-2.23 2.28Zm-.99 4.02h2.61l-3.68-4.02 3.68-3.99h-2.57l-2.38 2.6-2.36-2.6h-2.62l3.67 4.02-3.67 3.99h2.54l2.39-2.61 2.38 2.61Zm-13.89-8v8h6.57V23h-4.57v-1.4h4.48v-1.73h-4.48v-1.4h4.57v-1.74h-6.57Zm1.34-6.76.4-1.01.4 1.01.82 2.03h-2.42l.82-2.03Zm2.92 5.31h2.32l-3.47-8.03h-2.69l-3.49 8.03h2.29l.61-1.55H29l.61 1.55Zm4.32-5.22V9.02l.38 1.05 1.92 5.23h1.91l1.93-5.23.37-1.04v6.27h2.01V7.27h-3.34l-1.52 4.08-.4 1.1-.41-1.1-1.52-4.08h-3.34v8.03h2.01v-5.23Zm3.26-1.74.95-2.62h4.32V26.3h-4.08l-1.51-1.8-1.57 1.8H23.72v-9.57H19.9l4.78-11.02h4.65l1.12 2.5v-2.5h5.77l.96 2.62Z" style="fill:#fff;stroke-width:0"/><g style="clip-path:url(#a)"><path style="stroke:#d6d6d8;fill:none" d="M.5.5h47v31H.5z"/></g></g></svg>