<svg data-name="Capa 2" xmlns="http://www.w3.org/2000/svg" viewBox="0 0 48 32"><defs><clipPath id="a"><path style="fill:none;stroke-width:0" d="M0 0h48v32H0z"/></clipPath></defs><g data-name="Capa 1"><path style="fill:#fff;stroke-width:0" d="M.5.5h47v31H.5z"/><g style="clip-path:url(#a)"><path d="m35.97 13.48.87 4.1h-2.31l1.44-4.1Zm-.37-2.95c-.67 0-1.03.36-1.29 1l-4.06 9.94h2.91l.56-1.66h3.54l.35 1.66h2.56l-2.24-10.94H35.6Zm-15.46 0-2.28 10.94h2.77l2.27-10.94h-2.76Zm-14.09 0-.07.35s1.02.19 1.94.57c1.19.43 1.27.69 1.47 1.47l2.18 8.55h2.9l4.5-10.94h-2.9l-2.9 7.44-1.17-6.3c-.07-.67-.65-1.17-1.32-1.14H6.04h.01Zm22.2-.18c-2.43 0-4.6 1.29-4.6 3.66 0 2.71 3.85 2.9 3.85 4.27 0 .57-.64 1.09-1.75 1.09-1.57 0-2.74-.72-2.74-.72l-.5 2.39s1.35.6 3.14.6c2.66 0 4.74-1.34 4.74-3.75 0-2.87-3.86-3.05-3.86-4.32 0-.45.53-.95 1.63-.95 1.24 0 2.26.53 2.26.53l.49-2.31s-1.1-.49-2.66-.49Z" style="stroke-width:0;fill:#3d4596"/><path style="stroke:#d6d6d8;fill:none" d="M.5.5h47v31H.5z"/></g></g></svg>