<svg id="Capa_2" data-name="Capa 2" xmlns="http://www.w3.org/2000/svg" viewBox="0 0 151.73 94.7"><defs><style>.cls-1{fill:#fff;stroke-width:0}</style></defs><g id="Capa_1-2" data-name="Capa 1"><path class="cls-1" d="M49.3 12.19v11.99h11.95c0-3.79.02-7.53-.04-11.27 0-.24-.61-.67-.95-.69-1.63-.07-3.27-.03-4.91-.03H49.3m24.19 12.24h-12.1v11.99H49.12V24.45H37.07v12.06h-2.55c-2.65 0-5.3-.08-7.94.03-1.41.06-1.94-.26-1.87-1.8.14-2.88.04-5.77.04-8.66v-1.64H12.8v11.94H.53V.08h12.18V12H24.7V.06h12.32v11.97h12.05V.05h12.26V12h12.1V.03h12.15v11.94h12.15V.06h12.13V12.2H97.87v12h11.97v12.23H97.76V24.46H85.71V36.4H73.5V24.43ZM122.12 12.12V.02h4.74c2.02 0 4.04.03 6.06-.02.88-.02 1.32.17 1.3 1.18-.05 3.27-.02 6.53-.02 9.8 0 .62-.02 1.15-.88 1.15-3.69-.02-7.38 0-11.21 0M11.52 55.62v-6.85c2.18-.56 2.33-.44 2.33 1.65v14.95h-2.34V57.8H2.79v7.58H.52V48.65h2.21v6.97h8.8ZM0 84.18h1.92c1.3 3.42 3.67 4.68 7.01 3.7 1.26-.37 2.15-1.07 2.25-2.48.11-1.45-.71-2.25-1.98-2.62-1.65-.49-3.34-.86-5-1.33C1.58 80.7.43 79.43.44 77.37c0-2.27 1.46-4.21 3.99-4.59 1.74-.26 3.65-.15 5.35.3 2.04.54 3.05 2.47 2.95 4.63-1.13.28-1.95.38-2.47-1.15-.8-2.37-5.25-2.94-6.87-1.01-1.03 1.23-.76 2.82.72 3.47 1 .44 2.11.64 3.16.95 1.29.38 2.65.61 3.84 1.2 3.1 1.52 3.35 5.57.57 7.59-2.54 1.84-7.19 1.8-9.66-.1C.59 87.56-.06 86.09 0 84.18M77.01 83.43c.01-2.93-1.39-4.54-3.75-4.34-1.84.16-3 1.62-3.19 3.99-.21 2.73 1.19 4.82 3.28 4.91 2.22.09 3.64-1.69 3.65-4.57m-.36-5.14c.83-.38 1.51-.68 2.53-1.14 0 2.05.02 3.62 0 5.19-.04 2.69 0 5.39-.21 8.07-.16 2.02-1.29 3.53-3.38 4-2.33.52-4.63.53-6.44-1.37-.42-.45-.59-1.14-.92-1.84 1.16-.29 1.88-.44 2.62.64 1.32 1.91 4.86 1.43 5.8-.72.35-.81.42-1.73.57-2.38-1.51.37-2.92.78-4.36 1.04-.48.09-1.05-.11-1.54-.28-2.76-1-4.11-4.54-3.12-8.11.85-3.04 3.35-4.68 6.34-4.04.85.18 1.63.72 2.11.94M53.96 48.69c2.26-.38 2.27-.37 2.27 1.67v6.44c2.55-2.49 4.85-4.58 6.95-6.85 1.19-1.29 2.43-1.72 4.04-1.32-2.18 2.22-4.36 4.45-6.62 6.75 2.44 3.34 4.81 6.57 7.27 9.92-1.78.42-2.97.25-3.95-1.32-1.47-2.36-3.21-4.54-4.88-6.86-1.8 1.2-3.23 2.44-2.83 4.87.17 1.07.03 2.19.03 3.39h-2.27V48.69ZM111.87 53.37c-1.22 3.87-2.34 7.64-3.67 11.34-.19.53-1.38.71-2.24 1.11-.89-3.37-1.66-6.33-2.44-9.29-.08-.01-.16-.03-.25-.05-.17.59-.37 1.18-.52 1.77-.53 2.1-1.01 4.21-1.61 6.28-.11.39-.74.87-1.14.88-.49.02-1.32-.3-1.44-.66-1.3-3.75-2.49-7.53-3.71-11.31 2-.61 2.16-.53 2.68 1.33.71 2.52 1.42 5.05 2.45 7.58.48-1.92.96-3.83 1.43-5.75.16-.65.31-1.31.47-1.96.19-.8.27-1.51 1.47-1.55 1.28-.03 1.37.77 1.58 1.59.6 2.32 1.19 4.65 1.79 6.97.07.26.19.52.42 1.12.81-2.94 1.6-5.52 2.2-8.15.34-1.48 1.07-1.75 2.54-1.27M41.01 83.72c-1.39.25-2.8.45-4.18.77-1.03.24-1.73.94-1.6 2.06.13 1.16 1.03 1.5 2.08 1.55 2.83.14 4.21-1.45 3.7-4.38m-7.45-2.14c-.06-2.01.68-3.19 2.14-3.79.87-.36 1.86-.56 2.8-.57 3.6-.02 4.99.96 4.8 4.58-.08 1.53-.03 3.08 0 4.61.01.72-.25 1.6.92 1.79.15.02.3.67.25 1-.04.25-.35.57-.61.65-1.22.36-2.15-.05-2.68-1.36-1.64 1.29-3.4 1.75-5.34 1.36-1.79-.36-2.71-1.34-2.81-2.97-.12-1.88.61-3.13 2.35-3.66 1.32-.4 2.71-.58 4.08-.85.87-.18 1.78-.33 1.71-1.53-.07-1.19-.86-1.62-1.93-1.74-1.99-.22-2.62.18-3.66 1.74-.3.44-1.22.47-2.01.73M63.33 82.36c-.09-2.11-1.52-3.39-3.48-3.28-1.86.1-3.12 1.5-2.94 3.28h6.43Zm2.3 1.9h-8.81c-.15 1.89.65 3.17 2.2 3.67 1.74.56 3.32.05 4.18-1.34q.59-.96 2.11-.67c-.04 2.45-2.24 4.15-5.25 4.06-3.62-.11-5.83-2.82-5.63-6.91.18-3.58 2.8-6.06 6.16-5.84 3.26.22 5.35 3 5.04 7.03M89.43 82.29h6.64c-.3-2.1-1.5-3.22-3.33-3.21-1.86.01-3 1.08-3.31 3.21m8.8 1.97h-8.7c-.23 1.78.56 3.12 2.1 3.65 1.63.56 3.46.16 4.08-1.15.53-1.12 1.26-1.12 2.2-.91.16 1.77-1.19 3.4-3.22 3.93-4.66 1.22-8.43-2.53-7.52-7.45.52-2.79 2.25-4.67 4.66-5.03 4.07-.61 7.07 2.56 6.4 6.97M137.24 59.54c-.14-.82-.18-1.4-.34-1.94-.54-1.84-1.81-2.82-3.54-2.8-1.7.03-3.01 1.1-3.47 2.9-.41 1.59-.32 3.15.61 4.56 1.46 2.21 4.72 2.12 5.97-.22.44-.82.57-1.8.78-2.51m2.12-.17c0 3.83-2.36 6.37-5.92 6.4-3.61.02-6-2.56-5.97-6.48.03-3.9 2.32-6.37 5.91-6.38 3.66 0 5.98 2.51 5.97 6.46M91.5 59.32c0-2.44-1.27-4.25-3.17-4.49-1.95-.25-3.52.85-4.07 2.84-.69 2.5.21 5.05 2.09 5.86.34.15.73.24 1.11.27 2.41.2 4.04-1.62 4.05-4.48m-9.65-.02c0-3.9 2.27-6.36 5.88-6.4 3.62-.04 6.03 2.54 6.01 6.44-.01 3.82-2.37 6.39-5.91 6.42-3.62.04-5.98-2.52-5.98-6.47M110.51 80.66c-1.32.47-2.09.66-2.66-.5-.6-1.23-3.33-1.49-4.42-.6-.76.62-.68 1.65.28 2.11.86.4 1.82.58 2.74.86.83.25 1.67.44 2.47.76 1.11.44 1.79 1.26 1.88 2.5.1 1.35-.25 2.56-1.46 3.24-2.29 1.28-4.69 1.37-7.04.17-1.19-.6-1.79-1.69-1.8-3.15.95-.27 1.72-.55 2.31.73.71 1.53 4.27 1.83 5.39.59.69-.76.55-1.79-.47-2.26-.86-.4-1.82-.57-2.74-.86-.87-.27-1.79-.45-2.59-.84-2.19-1.08-2.35-3.91-.36-5.32 1.61-1.15 5.18-1.28 6.72-.01.77.63 1.17 1.71 1.74 2.59M71.71 65.41h-2.19v-5.35c0-1.78.08-3.56-.03-5.34-.09-1.45.49-1.81 1.87-1.44.07.38.16.82.28 1.42 1.38-1.54 3.01-2.01 4.89-1.71 1.76.28 2.93 1.2 3.01 2.97.15 3.11.04 6.23.04 9.43h-1.96v-7.85c0-1.18-.26-2.22-1.54-2.64-1.35-.45-3.04.03-3.7 1.23-.4.72-.62 1.62-.65 2.45-.09 2.24-.03 4.49-.03 6.82M143.72 65.43h-1.94V53.38c1.07-.48 1.88-.44 1.9 1.3 1.47-1.53 3.13-2.02 5.05-1.67 1.65.3 2.84 1.25 2.92 2.92.15 3.11.04 6.23.04 9.44h-1.96v-4.35c0-1.11-.02-2.21 0-3.32.02-1.3-.25-2.42-1.68-2.83-1.52-.43-3.2.21-3.82 1.58-.34.76-.48 1.66-.5 2.51-.07 2.1-.02 4.21-.02 6.46M43.53 63.46h-1.92v-5.47h-5.55v-1.9h5.46v-5.5h1.94v5.46h4.14c1.65 0 1.67.03 1.34 1.85h-5.41v5.54ZM19.5 74.16v3.2c.71.94 2.57-.51 2.43 1.41-.11 1.59-1.64.33-2.45 1.14v7.12c0 .93.67 1.09 1.39 1.06.78-.03 1.31.28 1.04 1.06-.12.36-.74.77-1.15.79-2.73.12-3.32-.47-3.32-3.18V79.7c-.74-.09-1.3-.16-1.97-.24v-1.58c.61-.09 1.21-.18 1.93-.29v-3.43h2.1ZM121.07 55.21c-1.11-.19-2.67.08-1.85-1.92.56-.08 1.16-.17 1.91-.28v-3.36h2.01v3.09c.81.91 2.47-.44 2.48 1.35.02 1.83-1.63.49-2.43 1.31 0 2.28-.04 4.76.05 7.24.01.3.69.84 1.04.82 1.54-.06 1.49.76 1.19 1.9-.82 0-1.63.06-2.42-.01-1.32-.12-1.93-.89-1.91-2.22.02-2.16 0-4.32 0-6.48 0-.47-.04-.94-.06-1.46M52.43 88.56v1.45c-1.1-.09-2.22.05-3.11-.34-.6-.27-1.18-1.26-1.24-1.97-.17-2.05-.13-4.13-.05-6.19.06-1.36-.13-2.3-1.95-1.94-.03-.6-.06-1.09-.09-1.67.68-.11 1.27-.21 1.99-.32v-3.25c1.96-.55 2.11-.44 2.11 1.4v1.91c.84.07 1.5.12 2.31.18.03.53.05 1.02.08 1.62-.8.09-1.49.17-2.36.26 0 2.55-.09 5.09.09 7.61.03.42 1.29.76 2.21 1.26M29.06 48.63h1.86V65.4h-1.86zM114.62 48.6h1.81v16.79h-1.81zM25.16 65.41h-1.98V50.24q0-1.83 1.98-1.58v16.75ZM26.66 77.88c.04.62.07 1.18.09 1.56 1.08-.62 2.17-1.32 3.32-1.87.48-.23 1.22-.3 1.22.65 0 .62.23 1.29-.82 1.5-2.54.51-3.38 1.52-3.52 4.12-.09 1.67-.07 3.35-.04 5.03.01.76-.19 1.14-1.04 1.14-.86 0-1.04-.4-1.04-1.15.02-3.21.06-6.43-.02-9.64-.03-1.36.49-1.71 1.85-1.34M17.56 65.39V53.27c.57-.03 1.16-.06 1.85-.1v12.22h-1.85ZM82.54 77.87h1.87V89.9h-1.87zM82.55 73.12h1.84v2.45h-1.84zM17.57 48.58h1.81v2.4h-1.81z"/></g></svg>