<svg id="Capa_2" data-name="Capa 2" xmlns="http://www.w3.org/2000/svg" viewBox="0 0 168.76 60.94"><defs><style>.cls-1{fill:#fff;stroke-width:0}</style></defs><g id="Capa_1-2" data-name="Capa 1"><path class="cls-1" d="M168.76 8.88h-13.74c-.04 0-.09 0-.15.02v5.29h12.36v7.61H154.8v9.28h-9.23V.93c.12 0 .22-.02.32-.02h22.87v7.97ZM161.51 60.94q-.64-.2-.64-.89v-.58l.39.1c.81.22 1.46-.05 1.8-.8.23-.49.43-.99.6-1.49.05-.13 0-.32-.06-.46-1.14-2.88-2.29-5.76-3.44-8.64l-.17-.44c.53 0 1.02-.01 1.52.01.09 0 .19.18.24.3.7 1.93 1.38 3.86 2.07 5.79.17.47.33.93.5 1.39.03.1.08.19.16.37.08-.21.14-.34.18-.47.8-2.34 1.61-4.68 2.4-7.03.1-.3.24-.39.54-.37.36.03.72 0 1.13 0-.06.16-.09.27-.14.38-1.31 3.41-2.62 6.81-3.93 10.22-.1.26-.21.51-.32.76-.4.92-.97 1.67-2.04 1.86h-.79ZM20.9 10.23H9.31V21.8H20.9V10.23Zm9.3 20.88H0V.93h30.2V31.1ZM69.68 12.76c1.91 0 3.79.08 5.65-.02 1.46-.08 2.2-.89 2.36-2.21.14-1.23-.55-2.27-1.7-2.53-.29-.06-.59-.09-.88-.09H69.68v4.86Zm-.01 11.51c.06.01.09.03.12.03h6.19c.59 0 1.15-.17 1.64-.51.9-.63 1.36-1.51 1.24-2.6-.12-1.09-.72-1.88-1.83-2.17-.36-.09-.74-.12-1.11-.12-1.97-.01-3.93 0-5.9 0-.12 0-.23 0-.36.02v5.38Zm12.82-9.39c.39.17.74.31 1.08.48 2.04.99 3.54 2.47 4.09 4.74 1.03 4.22-1.11 8.39-5.16 10.07-1.68.7-3.44.94-5.25.94h-16.8V.93c.09 0 .18-.02.27-.02 5.64 0 11.27-.02 16.91 0 2.14.01 4.13.57 5.83 1.94 2.73 2.19 3.37 5.77 2.42 8.44-.48 1.33-1.44 2.26-2.57 3.04-.26.18-.52.35-.83.54M143.14 9.86h-9.26c-.03-.21-.04-.42-.09-.63-.23-1.09-.9-1.82-1.89-2.26-1.42-.63-2.88-.65-4.32-.06-1.58.65-1.77 2.34-.42 3.37.88.67 1.92.95 2.96 1.24 2.42.67 4.85 1.3 7.26 2 1.75.51 3.32 1.35 4.53 2.74 2.12 2.43 2.58 5.22 1.62 8.25-.94 2.99-3 4.98-5.85 6.18-2.69 1.13-5.52 1.38-8.4 1.28-2.29-.09-4.52-.47-6.61-1.45-3.62-1.71-5.73-4.53-6.22-8.52-.05-.4-.06-.8-.09-1.23h9.57c.04.31.05.63.11.94.27 1.46 1.12 2.45 2.5 2.97 1.39.53 2.81.61 4.22.09.39-.14.76-.35 1.09-.6 1.08-.83 1.16-2.18.21-3.16-.46-.48-1.03-.79-1.66-.97-2.52-.73-5.03-1.45-7.55-2.18-1.76-.5-3.4-1.23-4.86-2.36-3.16-2.45-3.71-5.99-2.32-9.25.99-2.32 2.77-3.85 5.04-4.87 1.86-.83 3.83-1.19 5.84-1.32 2.03-.13 4.04-.03 6.03.4 2.32.5 4.43 1.43 6.09 3.18 1.64 1.73 2.4 3.82 2.43 6.23M99.4 19.93h5.49c-.97-3.33-1.93-6.64-2.89-9.94-.02 0-.04 0-.07.01-.84 3.3-1.68 6.6-2.53 9.93m7.83-19c3.69 10.04 7.38 20.08 11.08 30.14h-9.99l-1.26-3.9q-.2-.6-.84-.6h-8.34c-.27 0-.38.09-.44.34-.34 1.28-.7 2.56-1.05 3.84-.03.1-.06.21-.1.32H86.4c.04-.13.07-.24.11-.35 3.62-9.83 7.25-19.67 10.88-29.5.06-.17.1-.3.35-.3 3.12.01 6.24 0 9.36 0 .04 0 .09 0 .15.01M39.55 10.22h11.58V21.8H39.55zM12.15 55.02c.03-.11.07-.22.1-.33.84-3.43 1.68-6.86 2.51-10.29.05-.22.14-.31.37-.3.44.02.87 0 1.34 0-.3 1.14-.59 2.23-.88 3.32-.83 3.1-1.67 6.2-2.48 9.31-.08.31-.2.44-.53.41-.33-.03-.66-.03-.99 0-.27.02-.38-.07-.45-.34-.92-3.43-1.85-6.86-2.79-10.29-.04-.14-.08-.28-.12-.41h-.09c-.03.11-.07.22-.1.33-.94 3.42-1.89 6.85-2.82 10.28-.09.35-.23.46-.57.43-.34-.03-.68-.02-1.02 0-.22.01-.3-.07-.35-.28-.72-2.83-1.45-5.65-2.17-8.48C.77 47.06.44 45.75.1 44.43c-.02-.08-.04-.17-.07-.32.53 0 1.04-.01 1.55.01.06 0 .15.16.17.26l1.53 6.47c.31 1.3.61 2.6.92 3.91.02.09.06.17.17.26.03-.11.07-.22.1-.32.92-3.43 1.85-6.86 2.77-10.29.06-.23.16-.32.4-.3.39.02.79.02 1.19 0 .24-.01.34.07.4.3.54 2.06 1.09 4.11 1.64 6.17.37 1.39.74 2.78 1.11 4.16.03.1.06.19.1.28h.08M120.4 57.12h-1.45v-9.35h1.34v1.4c.12-.13.17-.19.22-.25 1-1.3 2.85-1.78 4.36-1.13.61.26.97.73 1.19 1.37.06-.06.1-.11.14-.16 1.23-1.82 3.54-1.72 4.77-1.08.8.41 1.18 1.13 1.19 1.99.03 2.37.01 4.74.01 7.12 0 .02-.01.04-.03.08h-1.42V51.02c0-.33-.03-.66-.1-.98-.14-.66-.55-1.08-1.21-1.19-.77-.13-1.52-.07-2.17.4-.65.47-.93 1.13-.93 1.91v5.95h-1.47V51.12c0-.37-.03-.75-.11-1.11-.16-.73-.68-1.13-1.42-1.21-1.88-.2-2.93 1.42-2.9 2.68.04 1.73.01 3.47.01 5.2v.42ZM63.76 52.28c-.32.1-.63.23-.96.29-.56.11-1.13.18-1.69.26-.62.1-1.24.21-1.72.66-.45.42-.53.95-.4 1.51.13.55.53.85 1.05.97.73.17 1.47.14 2.17-.13.79-.31 1.41-.82 1.53-1.7.08-.62.02-1.26.02-1.87m2.48 3.77v.66c0 .49 0 .51-.49.59-.28.05-.57.05-.85.03-.52-.04-.86-.38-.96-.89-.03-.17-.05-.34-.08-.53-.04.02-.07.03-.09.05-1.3 1.43-2.92 1.65-4.68 1.19-1.29-.34-1.9-1.53-1.66-2.97.2-1.17.98-1.79 2.06-2.04.94-.22 1.9-.36 2.84-.53.17-.03.34-.07.51-.12 1.02-.29 1.32-1.41.55-2.15-.21-.2-.52-.39-.8-.42-.65-.06-1.32-.08-1.96.01-.89.13-1.38.72-1.42 1.65h-1.45c.03-1.04.43-1.87 1.32-2.42.99-.62 2.09-.68 3.21-.61.4.02.81.08 1.2.19 1.14.31 1.74 1.11 1.74 2.29v4.81c0 .25 0 .51.03.76.05.43.18.52.61.49.1 0 .2-.02.33-.03M79.96 51.57c0-1.64-1.31-2.84-2.98-2.76-1.62.08-2.57 1.53-2.53 2.76h5.51Zm1.63 1.28h-7.18c-.05.88.13 1.65.71 2.3.88.99 2.66 1.24 3.79.56.55-.33.84-.85 1-1.47h1.43c-.28 1.33-.97 2.33-2.27 2.81-1.12.41-2.27.41-3.39.04-1.05-.35-1.83-1.05-2.27-2.06-.64-1.49-.79-3.03-.23-4.59.66-1.85 2.32-2.99 4.25-2.92 1.87.06 3.31 1.23 3.83 3.18.18.68.23 1.4.34 2.16M23.45 51.56c.05-1.56-1.26-2.79-2.87-2.76-1.69.03-2.68 1.51-2.64 2.76h5.51Zm1.42 2.66c-.2.96-.6 1.74-1.35 2.32-1.39 1.1-4.39 1.16-5.86-.43-.65-.7-.99-1.54-1.17-2.46-.21-1.12-.18-2.22.23-3.3.69-1.81 2.33-2.91 4.25-2.83 1.84.07 3.25 1.2 3.78 3.11.19.7.25 1.44.37 2.21h-7.15c-.19 1.32.56 2.81 2.08 3.13.5.11 1.05.1 1.57.03.9-.12 1.49-.66 1.75-1.53.06-.2.14-.26.34-.25.37.01.74 0 1.17 0M48.72 51.56h5.51c.05-1.32-1.04-2.71-2.61-2.77-1.62-.05-2.91 1.15-2.9 2.77m-.02 1.28c0 1.16.28 2.14 1.26 2.76 1.01.64 2.1.66 3.17.16.54-.25.85-.72 1.01-1.28.06-.2.14-.26.34-.25.37.02.74 0 1.16 0-.03.13-.04.24-.07.35-.45 1.6-1.62 2.6-3.29 2.72-.6.04-1.22.03-1.8-.09-1.37-.27-2.35-1.09-2.86-2.38-.58-1.47-.69-2.99-.12-4.5.83-2.18 3.08-3.3 5.32-2.65.87.25 1.53.8 2.04 1.52.66.94 1.04 2.43.92 3.63h-7.1ZM115.5 51.56c-.09-1.04-.49-1.89-1.4-2.4-.98-.55-1.99-.53-2.93.08-.82.53-1.16 1.35-1.23 2.31h5.57Zm1.53 1.29H110c-.27.97.38 2.35 1.38 2.86.88.46 1.81.49 2.74.15.75-.27 1.13-.87 1.33-1.62h1.4c-.12 1.33-1.19 2.55-2.6 2.92-.93.25-1.87.25-2.8 0-1.03-.28-1.86-.88-2.35-1.83-.89-1.73-1.04-3.53-.21-5.33.93-2.02 3.15-2.98 5.27-2.28.46.15.89.43 1.27.74 1.13.92 1.7 2.67 1.59 4.39M100.08 57.11h-1.44V44.13h1.44v5.03c.18-.24.29-.42.42-.56.87-.93 1.97-1.17 3.18-1.06 1.01.08 1.88.46 2.32 1.42.23.5.36 1.07.37 1.62.04 2.14.02 4.28.02 6.42 0 .03-.01.06-.02.11h-1.44v-6.16c0-.22-.02-.44-.05-.66-.13-.84-.76-1.41-1.61-1.49-1.92-.17-3.16.95-3.19 2.92-.02 1.66 0 3.32 0 4.97v.41ZM138.3 54.24h1.27c.05 0 .14.08.15.13.17 1.13.96 1.53 1.96 1.66.7.09 1.41.08 2.08-.18.69-.26 1.02-.85.87-1.54-.07-.35-.29-.58-.59-.75-.71-.42-1.52-.54-2.31-.74-.56-.14-1.14-.27-1.67-.48-.95-.36-1.59-1-1.61-2.1-.02-1.08.49-1.84 1.43-2.28 1.43-.67 2.91-.64 4.35-.06 1.06.43 1.48 1.34 1.56 2.45h-1.44c-.1-.72-.51-1.21-1.2-1.41-.88-.26-1.76-.29-2.59.17-.71.39-.75 1.26-.11 1.75.57.43 1.26.54 1.93.71.69.17 1.4.31 2.07.55.93.32 1.65.9 1.76 1.97.13 1.36-.48 2.4-1.76 2.87-1.42.53-2.89.54-4.32.01-1.19-.44-1.89-1.53-1.83-2.73M38.69 53.77h1.45c0 1.38-1.05 2.84-2.42 3.3-1.16.39-2.34.38-3.49-.05-1.21-.45-1.95-1.36-2.31-2.57-.39-1.31-.37-2.62.02-3.93.6-2.05 2.44-3.23 4.61-3 1.02.11 1.96.37 2.69 1.14.52.55.8 1.22.89 2.01h-1.36c-.06 0-.16-.08-.18-.14-.62-1.39-1.21-1.79-2.56-1.73-1.27.06-2.16.71-2.55 1.96-.38 1.2-.4 2.43.07 3.61.63 1.58 2.42 2.2 3.92 1.38.65-.36.98-.95 1.16-1.64.03-.11.05-.21.08-.34M96.62 50.67h-1.35c-.08 0-.19-.1-.21-.18-.29-.95-.9-1.55-1.91-1.67-1.17-.13-2.24.12-2.85 1.21-.85 1.55-.88 3.18-.06 4.76.52 1.02 1.6 1.45 2.81 1.25 1.13-.18 1.81-.84 2.07-2.01.02-.09.04-.17.07-.26h1.48c-.25 1.43-.82 2.61-2.2 3.19-1.29.54-2.62.53-3.91-.02-1.48-.64-2.12-1.9-2.35-3.41-.15-1.01-.07-2.01.21-3 .59-2.05 2.46-3.27 4.62-3 .58.07 1.18.2 1.71.44 1.12.5 1.69 1.44 1.87 2.7M68.38 49.02h-1.53v-1.29h1.52v-2.84h1.47v2.83h1.92V49h-1.9c0 .14-.02.23-.02.33v5.57c0 .77.17.94.95.96h.91v1.27c-.8-.02-1.62.09-2.41-.15-.61-.19-.82-.68-.89-1.26a8.06 8.06 0 0 1-.04-.85v-5.84ZM147.2 47.74h1.52V44.9h1.47v2.82h1.93v1.29h-1.91c0 .14-.02.25-.02.36v5.4c0 .93.15 1.08 1.09 1.09h.8v1.27c-.84-.02-1.66.1-2.46-.16-.53-.17-.77-.6-.84-1.12-.04-.3-.06-.61-.06-.92v-5.92h-1.53v-1.28ZM155.71 49.79c.81-1.33 1.85-2.23 3.52-2.15v1.52c-.25.02-.5.03-.75.07-1.49.23-2.36 1.1-2.57 2.62-.09.62-.1 1.25-.1 1.87-.02 1.09 0 2.17 0 3.26 0 .03-.01.06-.02.12h-1.42v-9.36h1.35v2.03ZM46.98 47.51v1.54c-.23.02-.44.03-.65.06-1.63.25-2.53 1.13-2.68 2.76-.1 1.09-.07 2.19-.09 3.29-.01.64 0 1.29 0 1.95h-1.44v-9.35h1.33v1.9s.05.02.07.03c.34-.64.78-1.2 1.38-1.62.62-.43 1.32-.56 2.08-.57M134.76 47.75h1.42v9.36h-1.42zM134.77 44.12h1.41v1.77h-1.41z"/></g></svg>