<svg xml:space="preserve" width="682.667" height="682.667" xmlns="http://www.w3.org/2000/svg"><defs><clipPath clipPathUnits="userSpaceOnUse" id="a"><path d="M0 512h512V0H0Z"/></clipPath></defs><g clip-path="url(#a)" transform="matrix(1.33333 0 0 -1.33333 0 682.667)"><path d="m0 0 95.581 94.332 32.032-31.615L-25.335-88.234l-38.877-6.755 6.844 38.37L-25.026-24.7" style="fill:none;stroke:#ffffff;stroke-width:15;stroke-linecap:round;stroke-linejoin:round;stroke-miterlimit:10;stroke-dasharray:none;stroke-opacity:1" transform="translate(71.712 108.061)"/><path d="M0 0c-3.481-11.594-9.859-22.521-19.132-31.673l-256.933 253.577c29.694 29.307 77.838 29.307 107.533.001l149.401-147.45C-6.604 62.091.638 46.486 2.595 30.375" style="fill:none;stroke:#ffffff;stroke-width:15;stroke-linecap:round;stroke-linejoin:round;stroke-miterlimit:10;stroke-dasharray:none;stroke-opacity:1" transform="translate(333.225 89.184)"/><path d="M0 0c-67.535-98.238-178.62-127.049-178.62-127.049l149.401-147.45S.854-165.735 100.393-99.082z" style="fill:none;stroke:#ffffff;stroke-width:15;stroke-linecap:round;stroke-linejoin:round;stroke-miterlimit:10;stroke-dasharray:none;stroke-opacity:1" transform="translate(343.313 438.138)"/><path d="m0 0 110.083-108.646c-17.008-16.786-44.585-16.786-61.594 0l-99.593 98.293a42.589 42.589 0 0 0 0 60.79l27.67-27.309" style="fill:none;stroke:#ffffff;stroke-width:15;stroke-linecap:round;stroke-linejoin:round;stroke-miterlimit:10;stroke-dasharray:none;stroke-opacity:1" transform="translate(394.416 448.49)"/></g></svg>