<svg xml:space="preserve" width="682.667" height="682.667" xmlns="http://www.w3.org/2000/svg"><defs><clipPath clipPathUnits="userSpaceOnUse" id="a"><path d="M0 512h512V0H0Z"/></clipPath></defs><g clip-path="url(#a)" transform="matrix(1.33333 0 0 -1.33333 0 682.667)"><path d="M0 0h16.5C47.103 0 72 24.897 72 55.5v97c0 30.603-24.897 55.5-55.5 55.5H0" style="fill:none;stroke:#ffffff;stroke-width:20;stroke-linecap:round;stroke-linejoin:round;stroke-miterlimit:10;stroke-dasharray:none;stroke-opacity:1" transform="translate(350 120.006)"/><path d="M0 0h16.5C73.57 0 120-46.43 120-103.5v-97C120-257.57 73.57-304 16.5-304H0" style="fill:none;stroke:#ffffff;stroke-width:20;stroke-linecap:round;stroke-linejoin:round;stroke-miterlimit:10;stroke-dasharray:none;stroke-opacity:1" transform="translate(350 376.006)"/><path d="M0 0v-344c0-24.301-19.699-44-44-44h-220c-24.301 0-44 19.699-44 44V0h175.846" style="fill:none;stroke:#ffffff;stroke-width:20;stroke-linecap:round;stroke-linejoin:round;stroke-miterlimit:10;stroke-dasharray:none;stroke-opacity:1" transform="translate(350 397.994)"/><path d="M0 0v-276c0-24.301-19.699-44-44-44h-220c-24.301 0-44 19.699-44 44V0" style="fill:none;stroke:#ffffff;stroke-width:20;stroke-linecap:round;stroke-linejoin:round;stroke-miterlimit:10;stroke-dasharray:none;stroke-opacity:1" transform="translate(350 384.006)"/><path d="M0 0h-62.138" style="fill:none;stroke:#ffffff;stroke-width:20;stroke-linecap:round;stroke-linejoin:round;stroke-miterlimit:10;stroke-dasharray:none;stroke-opacity:1" transform="translate(104.138 315.29)"/><path d="M0 0h-101.862" style="fill:none;stroke:#ffffff;stroke-width:20;stroke-linecap:round;stroke-linejoin:round;stroke-miterlimit:10;stroke-dasharray:none;stroke-opacity:1" transform="translate(296 315.29)"/><path d="M0 0v0c-12.15 0-22 9.85-22 22v119.18c0 12.151 9.85 22 22 22v0c12.15 0 22-9.849 22-22V22C22 9.85 12.15 0 0 0Z" style="fill:none;stroke:#ffffff;stroke-width:20;stroke-linecap:round;stroke-linejoin:round;stroke-miterlimit:10;stroke-dasharray:none;stroke-opacity:1" transform="translate(106 108.058)"/><path d="M0 0v0c-12.15 0-22 9.85-22 22v119.18c0 12.151 9.85 22 22 22v0c12.15 0 22-9.849 22-22V22C22 9.85 12.15 0 0 0Z" style="fill:none;stroke:#ffffff;stroke-width:20;stroke-linecap:round;stroke-linejoin:round;stroke-miterlimit:10;stroke-dasharray:none;stroke-opacity:1" transform="translate(194 108.058)"/><path d="M0 0v0c-12.15 0-22 9.85-22 22v119.18c0 12.151 9.85 22 22 22v0c12.15 0 22-9.849 22-22V22C22 9.85 12.15 0 0 0Z" style="fill:none;stroke:#ffffff;stroke-width:20;stroke-linecap:round;stroke-linejoin:round;stroke-miterlimit:10;stroke-dasharray:none;stroke-opacity:1" transform="translate(282 108.058)"/><path d="M0 0c0 22.091-17.909 40-40 40-8.083 0-15.6-2.405-21.891-6.528-7.108 8.017-17.137 13.282-28.417 14.337-9.449.883-18.347-1.261-25.839-5.573C-128.326 64.725-152.128 80-179.5 80c-27.379 0-51.186-15.283-63.362-37.782-8.871 5.106-19.701 7.19-31.096 4.79-18.018-3.794-31.576-18.913-33.729-37.2-1.492-12.679 2.398-24.366 10.528-33.916" style="fill:none;stroke:#ffffff;stroke-width:20;stroke-linecap:round;stroke-linejoin:round;stroke-miterlimit:10;stroke-dasharray:none;stroke-opacity:1" transform="translate(350 422.006)"/><path d="M0 0c16.177 0 29.292-13.323 29.292-29.5v-27.488c0-14.203 11.513-25.716 25.715-25.716 14.203 0 25.716 11.514 25.716 25.716v-68.285c0-14.202 11.513-25.715 25.715-25.715h.001c14.202 0 25.715 11.513 25.715 25.715V24.012" style="fill:none;stroke:#ffffff;stroke-width:20;stroke-linecap:round;stroke-linejoin:round;stroke-miterlimit:10;stroke-dasharray:none;stroke-opacity:1" transform="translate(217.846 397.994)"/><path d="M0 0v0" style="fill:none;stroke:#ffffff;stroke-width:20;stroke-linecap:round;stroke-linejoin:round;stroke-miterlimit:10;stroke-dasharray:none;stroke-opacity:1" transform="translate(149.138 315.29)"/></g></svg>