<svg xmlns="http://www.w3.org/2000/svg" style="enable-background:new 0 0 512 512" xml:space="preserve" width="512" height="512"><path style="fill:none;stroke:#ffffff;stroke-width:15;stroke-linecap:round;stroke-linejoin:round;stroke-miterlimit:10" d="M338.797 244.41c-17.81 33.49-39.88 57.54-64.41 76.06M293.722 220.18c-59.97 126.48-209.11 126.14-285.25 236.67-3.66 5.32 3.89 11.16 8.1 6.27 61.34-71.3 152.38-80.34 228.51-123.52M353.057 82.24c-9.82 15.91-12.74 34.62-8.86 52.08 2.77 12.55 9.06 24.45 18.82 34.2 7.83 7.84 17.06 13.44 26.89 16.78 24.45 8.31 52.67 2.65 72.64-17.32 31.5-31.5 39.85-83.31 41.9-114.69.96-14.83-11.37-27.16-26.2-26.19-27.05 1.76-69.31 8.21-100.63 30.15"/><path style="fill:none;stroke:#ffffff;stroke-width:15;stroke-linecap:round;stroke-linejoin:round;stroke-miterlimit:10" d="M389.907 185.3c-11.68 13.68-22.63 28.58-32.68 44.63-11.37 18.14-36.26 21.72-52.37 7.63-.19-.16-.37-.32-.55-.48-13.06-11.45-15.69-30.86-6.03-45.3 14.06-21.02 29.48-40.21 45.92-57.46M218.2 156.66c-21.07 21.86-50.15 42.17-88.97 50.43-42.82 9.12-80.62 28.22-106.06 72.35-2.93 5.09-10.76 1.86-9.16-3.8 9.57-33.88 34.19-81.13 97.58-99.94 28.64-8.5 53.92-22.78 73.23-45.43"/><path style="fill:none;stroke:#ffffff;stroke-width:15;stroke-linecap:round;stroke-linejoin:round;stroke-miterlimit:10" d="M259.54 114.58a319.679 319.679 0 0 0-20.09 28.54c-9.62 15.36-30.69 18.39-44.33 6.46-.15-.13-.31-.27-.46-.41-11.06-9.69-13.27-26.11-5.1-38.33a368.74 368.74 0 0 1 19.75-26.85"/><path style="fill:none;stroke:#ffffff;stroke-width:15;stroke-linecap:round;stroke-linejoin:round;stroke-miterlimit:10" d="M220.299 101.442c18.15 18.15 47.505 18.224 66.086-.358 20.916-20.916 26.46-55.322 27.82-76.155.643-9.848-7.546-18.036-17.393-17.393-20.833 1.36-55.239 6.903-76.155 27.82-18.581 18.581-18.508 47.935-.358 66.086zM408.459 379.181c-21.07 21.86-50.15 42.17-88.97 50.43-42.82 9.12-80.62 28.22-106.06 72.35-2.93 5.09-10.76 1.86-9.16-3.8 9.57-33.88 34.19-81.13 97.58-99.94 28.64-8.5 53.92-22.78 73.23-45.43"/><path style="fill:none;stroke:#ffffff;stroke-width:15;stroke-linecap:round;stroke-linejoin:round;stroke-miterlimit:10" d="M449.799 337.101a319.679 319.679 0 0 0-20.09 28.54c-9.62 15.36-30.69 18.39-44.33 6.46-.15-.13-.31-.27-.46-.41-11.06-9.69-13.27-26.11-5.1-38.33a368.74 368.74 0 0 1 19.75-26.85"/><path style="fill:none;stroke:#ffffff;stroke-width:15;stroke-linecap:round;stroke-linejoin:round;stroke-miterlimit:10" d="M424.31 247.43c-4.84 2.96-9.36 6.42-13.39 10.45-13.37 13.37-17.08 32.31-11.36 48.64a46.381 46.381 0 0 0 11 17.44c10.69 10.69 25.27 15.11 39.24 13.14 9.75-1.37 19.2-5.86 26.84-13.5 20.92-20.91 26.46-55.32 27.82-76.15.65-9.85-7.54-18.04-17.39-17.39-8.44.55-19.11 1.78-30.21 4.46"/></svg>