<svg data-name="Capa 2" xmlns="http://www.w3.org/2000/svg" viewBox="0 0 240.05 55.34"><g data-name="Capa 1"><path d="M238.44 27.83 240.05 0H227.3l1.58 27.83h9.55Zm-.42 14.03c1.22-1.22 1.82-2.66 1.82-4.36s-.6-3.13-1.82-4.36c-1.22-1.22-2.66-1.82-4.36-1.82s-3.14.6-4.36 1.82c-1.22 1.23-1.82 2.66-1.82 4.36s.6 3.14 1.82 4.36c1.23 1.25 2.66 1.85 4.36 1.85s3.13-.6 4.36-1.85" style="stroke-width:0;fill:#e30613"/><path d="M6.03 11.65c1.76 0 3.21-.53 4.33-1.61s1.69-2.43 1.69-4.08-.56-2.94-1.69-4S7.79.37 6.03.37c-1.15 0-2.19.25-3.11.75-.93.5-1.65 1.17-2.15 2.02-.51.85-.76 1.79-.76 2.83 0 1.63.56 2.98 1.69 4.06 1.13 1.08 2.57 1.62 4.33 1.62M.78 43.71h10.48V14.92H.78v28.79Zm51.9-29.39c-3.96 0-7.07 1.36-9.33 4.08h-.09c-1.69-2.72-4.44-4.08-8.27-4.08-1.49 0-2.9.32-4.23.98s-2.49 1.62-3.49 2.9h-.06v-3.27H16.7v28.79h10.51V29.25c0-1.88.36-3.28 1.09-4.22.73-.94 1.69-1.41 2.9-1.41.67 0 1.24.14 1.71.43s.83.7 1.08 1.24c.25.53.43 1.12.53 1.76.1.64.16 1.37.16 2.2v14.47h10.51V29.25c0-1.86.35-3.26 1.06-4.21.71-.95 1.63-1.42 2.76-1.42.38 0 .74.05 1.06.16.32.1.61.24.85.42.24.17.45.39.63.66s.33.56.45.88c.11.31.21.66.29 1.05.08.38.13.78.16 1.18.03.4.04.83.04 1.29v14.47h10.48V26.88c0-8.36-3.43-12.54-10.28-12.54m33.54-.02c-3.14 0-5.71 1.17-7.72 3.5h-.09v-2.9H67.89v40.42h10.48V41.22h.09c1.82 2.07 4.2 3.1 7.15 3.1 2.6 0 4.92-.63 6.95-1.88 2.03-1.25 3.61-3.02 4.74-5.31 1.13-2.29 1.69-4.9 1.69-7.82 0-1.45-.15-2.85-.45-4.18-.3-1.33-.72-2.54-1.26-3.65-.55-1.1-1.2-2.1-1.97-2.99-.77-.89-1.62-1.64-2.56-2.25-.94-.61-1.96-1.09-3.07-1.42-1.11-.33-2.26-.5-3.45-.5m-2.95 20.81c-1.55 0-2.82-.53-3.82-1.59s-1.49-2.46-1.49-4.2.5-3.09 1.49-4.16c1-1.07 2.27-1.61 3.82-1.61s2.72.54 3.67 1.61c.96 1.07 1.44 2.46 1.44 4.16s-.48 3.14-1.44 4.2-2.18 1.59-3.67 1.59m38.61-20.21v2.84h-.09c-1.99-2.3-4.48-3.44-7.46-3.44-1.78 0-3.45.37-5.02 1.1-1.57.74-2.92 1.76-4.06 3.06-1.14 1.3-2.03 2.89-2.68 4.77-.65 1.88-.98 3.89-.98 6.06s.33 4.23.99 6.1c.66 1.87 1.57 3.45 2.74 4.75 1.17 1.3 2.58 2.32 4.23 3.06 1.65.74 3.46 1.11 5.41 1.11 3.22 0 5.68-1.1 7.41-3.3h.09v2.7h9.96V14.92H121.9Zm-4.6 20.21c-1.49 0-2.72-.53-3.67-1.59-.96-1.06-1.44-2.46-1.44-4.2s.48-3.09 1.44-4.16c.96-1.07 2.18-1.61 3.67-1.61s2.64.54 3.6 1.62c.97 1.08 1.45 2.46 1.45 4.15s-.48 3.12-1.45 4.19c-.97 1.07-2.17 1.61-3.6 1.61m34.05 9.18c3 0 5.66-.5 7.97-1.51 2.31-1.01 4.12-2.32 5.44-3.95l-7.15-6.23c-1.36 1.57-3.09 2.35-5.2 2.35-1.64 0-2.99-.54-4.03-1.61s-1.56-2.45-1.56-4.13.5-2.99 1.51-4.05c1-1.05 2.33-1.58 3.98-1.58 2.1 0 3.89.86 5.34 2.58l6.98-5.94c-1.42-1.91-3.25-3.38-5.5-4.41a16.966 16.966 0 0 0-7.08-1.54c-3.06 0-5.79.63-8.2 1.89-2.4 1.26-4.27 3.03-5.6 5.31s-2 4.88-2 7.81.66 5.51 1.97 7.79c1.31 2.29 3.11 4.06 5.41 5.31 2.3 1.25 4.87 1.88 7.72 1.88m26.32.03c1.91 0 3.48-.18 4.71-.53 1.22-.35 2.46-.89 3.7-1.59l-2.55-7.32c-.67.31-1.38.46-2.12.46-.4 0-.74-.09-1.02-.26s-.47-.41-.59-.72-.19-.61-.23-.91c-.04-.3-.06-.65-.06-1.05v-9.16h6.26v-8.33h-6.26V4.79l-10.48 1.09v9.04h-3.13v8.33h3.13v11.42c0 1.61.22 3.03.66 4.28.44 1.24 1.05 2.25 1.82 3.03.78.77 1.68 1.36 2.73 1.75 1.04.39 2.19.59 3.43.59m30.06-29.4v2.84h-.09c-1.99-2.3-4.48-3.44-7.46-3.44-1.78 0-3.45.37-5.02 1.1-1.57.74-2.92 1.76-4.06 3.06-1.14 1.3-2.03 2.89-2.68 4.77-.65 1.88-.98 3.89-.98 6.06s.33 4.23.99 6.1c.66 1.87 1.57 3.45 2.74 4.75 1.17 1.3 2.58 2.32 4.23 3.06 1.66.74 3.46 1.11 5.41 1.11 3.21 0 5.68-1.1 7.41-3.3h.09v2.7h9.96V14.92h-10.53Zm-4.6 20.21c-1.49 0-2.72-.53-3.68-1.59s-1.44-2.46-1.44-4.2.48-3.09 1.44-4.16c.96-1.07 2.18-1.61 3.68-1.61s2.64.54 3.6 1.62c.97 1.08 1.45 2.46 1.45 4.15s-.48 3.12-1.45 4.19c-.97 1.07-2.17 1.61-3.6 1.61" style="fill:#fff;stroke-width:0"/></g></svg>