<svg id="Capa_2" data-name="Capa 2" xmlns="http://www.w3.org/2000/svg" viewBox="0 0 25 25"><defs><style>.cls-1{fill:#fff;stroke-width:0}</style></defs><g id="Capa_1-2" data-name="Capa 1"><path class="cls-1" d="M22.78 18.1c0 2.58-2.1 4.68-4.68 4.68H6.9c-2.58 0-4.68-2.1-4.68-4.68V6.9c0-2.58 2.1-4.68 4.68-4.68h11.2c2.58 0 4.68 2.1 4.68 4.68v11.2ZM18.1 0H6.9C3.09 0 0 3.1 0 6.9v11.2C0 21.9 3.09 25 6.9 25h11.2c3.8 0 6.9-3.1 6.9-6.9V6.9C25 3.1 21.9 0 18.1 0"/><path class="cls-1" d="M12.5 16.72c-2.33 0-4.22-1.89-4.22-4.22s1.9-4.22 4.22-4.22 4.22 1.89 4.22 4.22-1.9 4.22-4.22 4.22m0-10.66c-3.55 0-6.44 2.89-6.44 6.44s2.89 6.44 6.44 6.44 6.44-2.89 6.44-6.44-2.89-6.44-6.44-6.44M19.21 4.18c-.43 0-.85.17-1.15.48-.3.3-.48.72-.48 1.15s.17.85.48 1.15c.3.3.72.48 1.15.48s.85-.17 1.15-.48c.3-.3.48-.72.48-1.15s-.17-.85-.48-1.15c-.3-.3-.72-.48-1.15-.48"/></g></svg>